<mxfile host="app.diagrams.net" modified="2020-12-12T09:12:51.073Z" agent="5.0 (X11)" etag="IVdK7I539v75u7dGTDVO" version="13.10.9" type="github">
  <diagram id="R2lEEEUBdFMjLlhIrx00" name="Page-1">
    <mxGraphModel dx="663" dy="410" grid="1" gridSize="10" guides="1" tooltips="1" connect="1" arrows="1" fold="1" page="1" pageScale="1" pageWidth="850" pageHeight="1100" math="0" shadow="0" extFonts="Permanent Marker^https://fonts.googleapis.com/css?family=Permanent+Marker">
      <root>
        <mxCell id="0" />
        <mxCell id="1" parent="0" />
        <mxCell id="C-vyLk0tnHw3VtMMgP7b-1" value="" style="edgeStyle=entityRelationEdgeStyle;endArrow=ERzeroToMany;startArrow=ERone;endFill=1;startFill=0;" parent="1" source="C-vyLk0tnHw3VtMMgP7b-24" target="C-vyLk0tnHw3VtMMgP7b-6" edge="1">
          <mxGeometry width="100" height="100" relative="1" as="geometry">
            <mxPoint x="340" y="720" as="sourcePoint" />
            <mxPoint x="440" y="620" as="targetPoint" />
          </mxGeometry>
        </mxCell>
        <mxCell id="C-vyLk0tnHw3VtMMgP7b-12" value="" style="edgeStyle=entityRelationEdgeStyle;endArrow=ERzeroToMany;startArrow=ERone;endFill=1;startFill=0;" parent="1" source="C-vyLk0tnHw3VtMMgP7b-3" target="C-vyLk0tnHw3VtMMgP7b-17" edge="1">
          <mxGeometry width="100" height="100" relative="1" as="geometry">
            <mxPoint x="400" y="180" as="sourcePoint" />
            <mxPoint x="460" y="205" as="targetPoint" />
          </mxGeometry>
        </mxCell>
        <mxCell id="C-vyLk0tnHw3VtMMgP7b-2" value="Orders" style="shape=table;startSize=30;container=1;collapsible=1;childLayout=tableLayout;fixedRows=1;rowLines=0;fontStyle=1;align=center;resizeLast=1;" parent="1" vertex="1">
          <mxGeometry x="450" y="20" width="250" height="130" as="geometry" />
        </mxCell>
        <mxCell id="C-vyLk0tnHw3VtMMgP7b-3" value="" style="shape=partialRectangle;collapsible=0;dropTarget=0;pointerEvents=0;fillColor=none;points=[[0,0.5],[1,0.5]];portConstraint=eastwest;top=0;left=0;right=0;bottom=1;" parent="C-vyLk0tnHw3VtMMgP7b-2" vertex="1">
          <mxGeometry y="30" width="250" height="30" as="geometry" />
        </mxCell>
        <mxCell id="C-vyLk0tnHw3VtMMgP7b-4" value="PK" style="shape=partialRectangle;overflow=hidden;connectable=0;fillColor=none;top=0;left=0;bottom=0;right=0;fontStyle=1;" parent="C-vyLk0tnHw3VtMMgP7b-3" vertex="1">
          <mxGeometry width="30" height="30" as="geometry" />
        </mxCell>
        <mxCell id="C-vyLk0tnHw3VtMMgP7b-5" value="order_id int NOT NULL " style="shape=partialRectangle;overflow=hidden;connectable=0;fillColor=none;top=0;left=0;bottom=0;right=0;align=left;spacingLeft=6;fontStyle=5;" parent="C-vyLk0tnHw3VtMMgP7b-3" vertex="1">
          <mxGeometry x="30" width="220" height="30" as="geometry" />
        </mxCell>
        <mxCell id="C-vyLk0tnHw3VtMMgP7b-6" value="" style="shape=partialRectangle;collapsible=0;dropTarget=0;pointerEvents=0;fillColor=none;points=[[0,0.5],[1,0.5]];portConstraint=eastwest;top=0;left=0;right=0;bottom=0;" parent="C-vyLk0tnHw3VtMMgP7b-2" vertex="1">
          <mxGeometry y="60" width="250" height="30" as="geometry" />
        </mxCell>
        <mxCell id="C-vyLk0tnHw3VtMMgP7b-7" value="FK1" style="shape=partialRectangle;overflow=hidden;connectable=0;fillColor=none;top=0;left=0;bottom=0;right=0;" parent="C-vyLk0tnHw3VtMMgP7b-6" vertex="1">
          <mxGeometry width="30" height="30" as="geometry" />
        </mxCell>
        <mxCell id="C-vyLk0tnHw3VtMMgP7b-8" value="customer_id int NOT NULL" style="shape=partialRectangle;overflow=hidden;connectable=0;fillColor=none;top=0;left=0;bottom=0;right=0;align=left;spacingLeft=6;" parent="C-vyLk0tnHw3VtMMgP7b-6" vertex="1">
          <mxGeometry x="30" width="220" height="30" as="geometry" />
        </mxCell>
        <mxCell id="C-vyLk0tnHw3VtMMgP7b-9" value="" style="shape=partialRectangle;collapsible=0;dropTarget=0;pointerEvents=0;fillColor=none;points=[[0,0.5],[1,0.5]];portConstraint=eastwest;top=0;left=0;right=0;bottom=0;" parent="C-vyLk0tnHw3VtMMgP7b-2" vertex="1">
          <mxGeometry y="90" width="250" height="30" as="geometry" />
        </mxCell>
        <mxCell id="C-vyLk0tnHw3VtMMgP7b-10" value="" style="shape=partialRectangle;overflow=hidden;connectable=0;fillColor=none;top=0;left=0;bottom=0;right=0;" parent="C-vyLk0tnHw3VtMMgP7b-9" vertex="1">
          <mxGeometry width="30" height="30" as="geometry" />
        </mxCell>
        <mxCell id="C-vyLk0tnHw3VtMMgP7b-11" value="order_date date NOT NULL" style="shape=partialRectangle;overflow=hidden;connectable=0;fillColor=none;top=0;left=0;bottom=0;right=0;align=left;spacingLeft=6;" parent="C-vyLk0tnHw3VtMMgP7b-9" vertex="1">
          <mxGeometry x="30" width="220" height="30" as="geometry" />
        </mxCell>
        <mxCell id="C-vyLk0tnHw3VtMMgP7b-13" value="Shipments" style="shape=table;startSize=30;container=1;collapsible=1;childLayout=tableLayout;fixedRows=1;rowLines=0;fontStyle=1;align=center;resizeLast=1;" parent="1" vertex="1">
          <mxGeometry x="430" y="240" width="250" height="130" as="geometry" />
        </mxCell>
        <mxCell id="C-vyLk0tnHw3VtMMgP7b-14" value="" style="shape=partialRectangle;collapsible=0;dropTarget=0;pointerEvents=0;fillColor=none;points=[[0,0.5],[1,0.5]];portConstraint=eastwest;top=0;left=0;right=0;bottom=1;" parent="C-vyLk0tnHw3VtMMgP7b-13" vertex="1">
          <mxGeometry y="30" width="250" height="30" as="geometry" />
        </mxCell>
        <mxCell id="C-vyLk0tnHw3VtMMgP7b-15" value="PK" style="shape=partialRectangle;overflow=hidden;connectable=0;fillColor=none;top=0;left=0;bottom=0;right=0;fontStyle=1;" parent="C-vyLk0tnHw3VtMMgP7b-14" vertex="1">
          <mxGeometry width="30" height="30" as="geometry" />
        </mxCell>
        <mxCell id="C-vyLk0tnHw3VtMMgP7b-16" value="shipment_id int NOT NULL " style="shape=partialRectangle;overflow=hidden;connectable=0;fillColor=none;top=0;left=0;bottom=0;right=0;align=left;spacingLeft=6;fontStyle=5;" parent="C-vyLk0tnHw3VtMMgP7b-14" vertex="1">
          <mxGeometry x="30" width="220" height="30" as="geometry" />
        </mxCell>
        <mxCell id="C-vyLk0tnHw3VtMMgP7b-17" value="" style="shape=partialRectangle;collapsible=0;dropTarget=0;pointerEvents=0;fillColor=none;points=[[0,0.5],[1,0.5]];portConstraint=eastwest;top=0;left=0;right=0;bottom=0;" parent="C-vyLk0tnHw3VtMMgP7b-13" vertex="1">
          <mxGeometry y="60" width="250" height="30" as="geometry" />
        </mxCell>
        <mxCell id="C-vyLk0tnHw3VtMMgP7b-18" value="FK1" style="shape=partialRectangle;overflow=hidden;connectable=0;fillColor=none;top=0;left=0;bottom=0;right=0;" parent="C-vyLk0tnHw3VtMMgP7b-17" vertex="1">
          <mxGeometry width="30" height="30" as="geometry" />
        </mxCell>
        <mxCell id="C-vyLk0tnHw3VtMMgP7b-19" value="order_id int NOT NULL" style="shape=partialRectangle;overflow=hidden;connectable=0;fillColor=none;top=0;left=0;bottom=0;right=0;align=left;spacingLeft=6;" parent="C-vyLk0tnHw3VtMMgP7b-17" vertex="1">
          <mxGeometry x="30" width="220" height="30" as="geometry" />
        </mxCell>
        <mxCell id="C-vyLk0tnHw3VtMMgP7b-20" value="" style="shape=partialRectangle;collapsible=0;dropTarget=0;pointerEvents=0;fillColor=none;points=[[0,0.5],[1,0.5]];portConstraint=eastwest;top=0;left=0;right=0;bottom=0;" parent="C-vyLk0tnHw3VtMMgP7b-13" vertex="1">
          <mxGeometry y="90" width="250" height="30" as="geometry" />
        </mxCell>
        <mxCell id="C-vyLk0tnHw3VtMMgP7b-21" value="" style="shape=partialRectangle;overflow=hidden;connectable=0;fillColor=none;top=0;left=0;bottom=0;right=0;" parent="C-vyLk0tnHw3VtMMgP7b-20" vertex="1">
          <mxGeometry width="30" height="30" as="geometry" />
        </mxCell>
        <mxCell id="C-vyLk0tnHw3VtMMgP7b-22" value="shipment_date date NOT NULL" style="shape=partialRectangle;overflow=hidden;connectable=0;fillColor=none;top=0;left=0;bottom=0;right=0;align=left;spacingLeft=6;" parent="C-vyLk0tnHw3VtMMgP7b-20" vertex="1">
          <mxGeometry x="30" width="220" height="30" as="geometry" />
        </mxCell>
        <mxCell id="C-vyLk0tnHw3VtMMgP7b-23" value="Client" style="shape=table;startSize=30;container=1;collapsible=1;childLayout=tableLayout;fixedRows=1;rowLines=0;fontStyle=1;align=center;resizeLast=1;fillColor=#007FFF;" parent="1" vertex="1" collapsed="1">
          <mxGeometry x="30" y="20" width="70" height="30" as="geometry">
            <mxRectangle x="30" y="20" width="250" height="440" as="alternateBounds" />
          </mxGeometry>
        </mxCell>
        <mxCell id="C-vyLk0tnHw3VtMMgP7b-24" value="" style="shape=partialRectangle;collapsible=0;dropTarget=0;pointerEvents=0;fillColor=none;points=[[0,0.5],[1,0.5]];portConstraint=eastwest;top=0;left=0;right=0;bottom=1;" parent="C-vyLk0tnHw3VtMMgP7b-23" vertex="1">
          <mxGeometry y="30" width="250" height="30" as="geometry" />
        </mxCell>
        <mxCell id="C-vyLk0tnHw3VtMMgP7b-25" value="PK" style="shape=partialRectangle;overflow=hidden;connectable=0;fillColor=none;top=0;left=0;bottom=0;right=0;fontStyle=1;" parent="C-vyLk0tnHw3VtMMgP7b-24" vertex="1">
          <mxGeometry width="30" height="30" as="geometry" />
        </mxCell>
        <mxCell id="C-vyLk0tnHw3VtMMgP7b-26" value="id_client int NOT NULL " style="shape=partialRectangle;overflow=hidden;connectable=0;fillColor=none;top=0;left=0;bottom=0;right=0;align=left;spacingLeft=6;fontStyle=1;" parent="C-vyLk0tnHw3VtMMgP7b-24" vertex="1">
          <mxGeometry x="30" width="220" height="30" as="geometry" />
        </mxCell>
        <mxCell id="C-vyLk0tnHw3VtMMgP7b-27" value="" style="shape=partialRectangle;collapsible=0;dropTarget=0;pointerEvents=0;fillColor=none;points=[[0,0.5],[1,0.5]];portConstraint=eastwest;top=0;left=0;right=0;bottom=0;" parent="C-vyLk0tnHw3VtMMgP7b-23" vertex="1">
          <mxGeometry y="60" width="250" height="30" as="geometry" />
        </mxCell>
        <mxCell id="C-vyLk0tnHw3VtMMgP7b-28" value="" style="shape=partialRectangle;overflow=hidden;connectable=0;fillColor=none;top=0;left=0;bottom=0;right=0;" parent="C-vyLk0tnHw3VtMMgP7b-27" vertex="1">
          <mxGeometry width="30" height="30" as="geometry" />
        </mxCell>
        <mxCell id="C-vyLk0tnHw3VtMMgP7b-29" value="kd_client varchar(15) NOT NULL" style="shape=partialRectangle;overflow=hidden;connectable=0;fillColor=none;top=0;left=0;bottom=0;right=0;align=left;spacingLeft=6;" parent="C-vyLk0tnHw3VtMMgP7b-27" vertex="1">
          <mxGeometry x="30" width="220" height="30" as="geometry" />
        </mxCell>
        <mxCell id="9JYPRybK3mzHZb6tLrKf-40" value="" style="shape=partialRectangle;collapsible=0;dropTarget=0;pointerEvents=0;fillColor=none;top=0;left=0;bottom=0;right=0;points=[[0,0.5],[1,0.5]];portConstraint=eastwest;strokeColor=#000000;" vertex="1" parent="C-vyLk0tnHw3VtMMgP7b-23">
          <mxGeometry y="90" width="250" height="30" as="geometry" />
        </mxCell>
        <mxCell id="9JYPRybK3mzHZb6tLrKf-41" value="" style="shape=partialRectangle;connectable=0;fillColor=none;top=0;left=0;bottom=0;right=0;editable=1;overflow=hidden;" vertex="1" parent="9JYPRybK3mzHZb6tLrKf-40">
          <mxGeometry width="30" height="30" as="geometry" />
        </mxCell>
        <mxCell id="9JYPRybK3mzHZb6tLrKf-42" value="nm_client varchar(50) NOT NULL" style="shape=partialRectangle;connectable=0;fillColor=none;top=0;left=0;bottom=0;right=0;align=left;spacingLeft=6;overflow=hidden;" vertex="1" parent="9JYPRybK3mzHZb6tLrKf-40">
          <mxGeometry x="30" width="220" height="30" as="geometry" />
        </mxCell>
        <mxCell id="9JYPRybK3mzHZb6tLrKf-44" value="" style="shape=partialRectangle;collapsible=0;dropTarget=0;pointerEvents=0;fillColor=none;top=0;left=0;bottom=0;right=0;points=[[0,0.5],[1,0.5]];portConstraint=eastwest;" vertex="1" parent="C-vyLk0tnHw3VtMMgP7b-23">
          <mxGeometry y="120" width="250" height="30" as="geometry" />
        </mxCell>
        <mxCell id="9JYPRybK3mzHZb6tLrKf-45" value="" style="shape=partialRectangle;connectable=0;fillColor=none;top=0;left=0;bottom=0;right=0;editable=1;overflow=hidden;" vertex="1" parent="9JYPRybK3mzHZb6tLrKf-44">
          <mxGeometry width="30" height="30" as="geometry" />
        </mxCell>
        <mxCell id="9JYPRybK3mzHZb6tLrKf-46" value="deskripsi_kontrak text NULL" style="shape=partialRectangle;connectable=0;fillColor=none;top=0;left=0;bottom=0;right=0;align=left;spacingLeft=6;overflow=hidden;" vertex="1" parent="9JYPRybK3mzHZb6tLrKf-44">
          <mxGeometry x="30" width="220" height="30" as="geometry" />
        </mxCell>
        <mxCell id="9JYPRybK3mzHZb6tLrKf-52" value="" style="shape=partialRectangle;collapsible=0;dropTarget=0;pointerEvents=0;fillColor=none;top=0;left=0;bottom=0;right=0;points=[[0,0.5],[1,0.5]];portConstraint=eastwest;" vertex="1" parent="C-vyLk0tnHw3VtMMgP7b-23">
          <mxGeometry y="150" width="250" height="30" as="geometry" />
        </mxCell>
        <mxCell id="9JYPRybK3mzHZb6tLrKf-53" value="" style="shape=partialRectangle;connectable=0;fillColor=none;top=0;left=0;bottom=0;right=0;editable=1;overflow=hidden;" vertex="1" parent="9JYPRybK3mzHZb6tLrKf-52">
          <mxGeometry width="30" height="30" as="geometry" />
        </mxCell>
        <mxCell id="9JYPRybK3mzHZb6tLrKf-54" value="no_kontrak varchar(50) NULL" style="shape=partialRectangle;connectable=0;fillColor=none;top=0;left=0;bottom=0;right=0;align=left;spacingLeft=6;overflow=hidden;" vertex="1" parent="9JYPRybK3mzHZb6tLrKf-52">
          <mxGeometry x="30" width="220" height="30" as="geometry" />
        </mxCell>
        <mxCell id="9JYPRybK3mzHZb6tLrKf-114" value="" style="shape=partialRectangle;collapsible=0;dropTarget=0;pointerEvents=0;fillColor=none;top=0;left=0;bottom=0;right=0;points=[[0,0.5],[1,0.5]];portConstraint=eastwest;strokeColor=#000000;" vertex="1" parent="C-vyLk0tnHw3VtMMgP7b-23">
          <mxGeometry y="180" width="250" height="30" as="geometry" />
        </mxCell>
        <mxCell id="9JYPRybK3mzHZb6tLrKf-115" value="" style="shape=partialRectangle;connectable=0;fillColor=none;top=0;left=0;bottom=0;right=0;editable=1;overflow=hidden;" vertex="1" parent="9JYPRybK3mzHZb6tLrKf-114">
          <mxGeometry width="30" height="30" as="geometry" />
        </mxCell>
        <mxCell id="9JYPRybK3mzHZb6tLrKf-116" value="logo_client varchar(255) NULL" style="shape=partialRectangle;connectable=0;fillColor=none;top=0;left=0;bottom=0;right=0;align=left;spacingLeft=6;overflow=hidden;" vertex="1" parent="9JYPRybK3mzHZb6tLrKf-114">
          <mxGeometry x="30" width="220" height="30" as="geometry" />
        </mxCell>
        <mxCell id="9JYPRybK3mzHZb6tLrKf-60" value="" style="shape=partialRectangle;collapsible=0;dropTarget=0;pointerEvents=0;fillColor=none;top=0;left=0;bottom=0;right=0;points=[[0,0.5],[1,0.5]];portConstraint=eastwest;" vertex="1" parent="C-vyLk0tnHw3VtMMgP7b-23">
          <mxGeometry y="210" width="250" height="30" as="geometry" />
        </mxCell>
        <mxCell id="9JYPRybK3mzHZb6tLrKf-61" value="" style="shape=partialRectangle;connectable=0;fillColor=none;top=0;left=0;bottom=0;right=0;editable=1;overflow=hidden;" vertex="1" parent="9JYPRybK3mzHZb6tLrKf-60">
          <mxGeometry width="30" height="30" as="geometry" />
        </mxCell>
        <mxCell id="9JYPRybK3mzHZb6tLrKf-62" value="tanggal_awal_kontrak date NULL" style="shape=partialRectangle;connectable=0;fillColor=none;top=0;left=0;bottom=0;right=0;align=left;spacingLeft=6;overflow=hidden;" vertex="1" parent="9JYPRybK3mzHZb6tLrKf-60">
          <mxGeometry x="30" width="220" height="30" as="geometry" />
        </mxCell>
        <mxCell id="9JYPRybK3mzHZb6tLrKf-91" value="" style="shape=partialRectangle;collapsible=0;dropTarget=0;pointerEvents=0;fillColor=none;top=0;left=0;bottom=0;right=0;points=[[0,0.5],[1,0.5]];portConstraint=eastwest;strokeColor=#000000;" vertex="1" parent="C-vyLk0tnHw3VtMMgP7b-23">
          <mxGeometry y="240" width="250" height="30" as="geometry" />
        </mxCell>
        <mxCell id="9JYPRybK3mzHZb6tLrKf-92" value="" style="shape=partialRectangle;connectable=0;fillColor=none;top=0;left=0;bottom=0;right=0;editable=1;overflow=hidden;" vertex="1" parent="9JYPRybK3mzHZb6tLrKf-91">
          <mxGeometry width="30" height="30" as="geometry" />
        </mxCell>
        <mxCell id="9JYPRybK3mzHZb6tLrKf-93" value="tanggal_akhir_kontrak date NULL" style="shape=partialRectangle;connectable=0;fillColor=none;top=0;left=0;bottom=0;right=0;align=left;spacingLeft=6;overflow=hidden;" vertex="1" parent="9JYPRybK3mzHZb6tLrKf-91">
          <mxGeometry x="30" width="220" height="30" as="geometry" />
        </mxCell>
        <mxCell id="9JYPRybK3mzHZb6tLrKf-3" value="User" style="shape=table;startSize=30;container=1;collapsible=1;childLayout=tableLayout;fixedRows=1;rowLines=0;fontStyle=1;align=center;resizeLast=1;fillColor=#007FFF;" vertex="1" collapsed="1" parent="1">
          <mxGeometry x="20" y="130" width="60" height="30" as="geometry">
            <mxRectangle x="20" y="130" width="270" height="285" as="alternateBounds" />
          </mxGeometry>
        </mxCell>
        <mxCell id="9JYPRybK3mzHZb6tLrKf-4" value="" style="shape=partialRectangle;collapsible=0;dropTarget=0;pointerEvents=0;fillColor=none;top=0;left=0;bottom=1;right=0;points=[[0,0.5],[1,0.5]];portConstraint=eastwest;" vertex="1" parent="9JYPRybK3mzHZb6tLrKf-3">
          <mxGeometry y="30" width="270" height="30" as="geometry" />
        </mxCell>
        <mxCell id="9JYPRybK3mzHZb6tLrKf-5" value="PK" style="shape=partialRectangle;connectable=0;fillColor=none;top=0;left=0;bottom=0;right=0;fontStyle=1;overflow=hidden;" vertex="1" parent="9JYPRybK3mzHZb6tLrKf-4">
          <mxGeometry width="30" height="30" as="geometry" />
        </mxCell>
        <mxCell id="9JYPRybK3mzHZb6tLrKf-6" value="id_user int (12) NOT NULL" style="shape=partialRectangle;connectable=0;fillColor=none;top=0;left=0;bottom=0;right=0;align=left;spacingLeft=6;fontStyle=5;overflow=hidden;" vertex="1" parent="9JYPRybK3mzHZb6tLrKf-4">
          <mxGeometry x="30" width="240" height="30" as="geometry" />
        </mxCell>
        <mxCell id="9JYPRybK3mzHZb6tLrKf-7" value="" style="shape=partialRectangle;collapsible=0;dropTarget=0;pointerEvents=0;fillColor=none;top=0;left=0;bottom=0;right=0;points=[[0,0.5],[1,0.5]];portConstraint=eastwest;" vertex="1" parent="9JYPRybK3mzHZb6tLrKf-3">
          <mxGeometry y="60" width="270" height="30" as="geometry" />
        </mxCell>
        <mxCell id="9JYPRybK3mzHZb6tLrKf-8" value="" style="shape=partialRectangle;connectable=0;fillColor=none;top=0;left=0;bottom=0;right=0;editable=1;overflow=hidden;" vertex="1" parent="9JYPRybK3mzHZb6tLrKf-7">
          <mxGeometry width="30" height="30" as="geometry" />
        </mxCell>
        <mxCell id="9JYPRybK3mzHZb6tLrKf-9" value="user_group (15) VARCHAR NOT NULL" style="shape=partialRectangle;connectable=0;fillColor=none;top=0;left=0;bottom=0;right=0;align=left;spacingLeft=6;overflow=hidden;" vertex="1" parent="9JYPRybK3mzHZb6tLrKf-7">
          <mxGeometry x="30" width="240" height="30" as="geometry" />
        </mxCell>
        <mxCell id="9JYPRybK3mzHZb6tLrKf-10" value="" style="shape=partialRectangle;collapsible=0;dropTarget=0;pointerEvents=0;fillColor=none;top=0;left=0;bottom=0;right=0;points=[[0,0.5],[1,0.5]];portConstraint=eastwest;" vertex="1" parent="9JYPRybK3mzHZb6tLrKf-3">
          <mxGeometry y="90" width="270" height="30" as="geometry" />
        </mxCell>
        <mxCell id="9JYPRybK3mzHZb6tLrKf-11" value="" style="shape=partialRectangle;connectable=0;fillColor=none;top=0;left=0;bottom=0;right=0;editable=1;overflow=hidden;" vertex="1" parent="9JYPRybK3mzHZb6tLrKf-10">
          <mxGeometry width="30" height="30" as="geometry" />
        </mxCell>
        <mxCell id="9JYPRybK3mzHZb6tLrKf-12" value="username (20) VARCHAR NOT NULL" style="shape=partialRectangle;connectable=0;fillColor=none;top=0;left=0;bottom=0;right=0;align=left;spacingLeft=6;overflow=hidden;" vertex="1" parent="9JYPRybK3mzHZb6tLrKf-10">
          <mxGeometry x="30" width="240" height="30" as="geometry" />
        </mxCell>
        <mxCell id="9JYPRybK3mzHZb6tLrKf-13" value="" style="shape=partialRectangle;collapsible=0;dropTarget=0;pointerEvents=0;fillColor=none;top=0;left=0;bottom=0;right=0;points=[[0,0.5],[1,0.5]];portConstraint=eastwest;" vertex="1" parent="9JYPRybK3mzHZb6tLrKf-3">
          <mxGeometry y="120" width="270" height="30" as="geometry" />
        </mxCell>
        <mxCell id="9JYPRybK3mzHZb6tLrKf-14" value="" style="shape=partialRectangle;connectable=0;fillColor=none;top=0;left=0;bottom=0;right=0;editable=1;overflow=hidden;" vertex="1" parent="9JYPRybK3mzHZb6tLrKf-13">
          <mxGeometry width="30" height="30" as="geometry" />
        </mxCell>
        <mxCell id="9JYPRybK3mzHZb6tLrKf-15" value="password (25) VARCHAR NOT NULL" style="shape=partialRectangle;connectable=0;fillColor=none;top=0;left=0;bottom=0;right=0;align=left;spacingLeft=6;overflow=hidden;" vertex="1" parent="9JYPRybK3mzHZb6tLrKf-13">
          <mxGeometry x="30" width="240" height="30" as="geometry" />
        </mxCell>
        <mxCell id="9JYPRybK3mzHZb6tLrKf-122" value="" style="shape=partialRectangle;collapsible=0;dropTarget=0;pointerEvents=0;fillColor=none;top=0;left=0;bottom=0;right=0;points=[[0,0.5],[1,0.5]];portConstraint=eastwest;" vertex="1" parent="9JYPRybK3mzHZb6tLrKf-3">
          <mxGeometry y="150" width="270" height="30" as="geometry" />
        </mxCell>
        <mxCell id="9JYPRybK3mzHZb6tLrKf-123" value="" style="shape=partialRectangle;connectable=0;fillColor=none;top=0;left=0;bottom=0;right=0;editable=1;overflow=hidden;" vertex="1" parent="9JYPRybK3mzHZb6tLrKf-122">
          <mxGeometry width="30" height="30" as="geometry" />
        </mxCell>
        <mxCell id="9JYPRybK3mzHZb6tLrKf-124" value="email (30) VARCHAR NULL" style="shape=partialRectangle;connectable=0;fillColor=none;top=0;left=0;bottom=0;right=0;align=left;spacingLeft=6;overflow=hidden;" vertex="1" parent="9JYPRybK3mzHZb6tLrKf-122">
          <mxGeometry x="30" width="240" height="30" as="geometry" />
        </mxCell>
        <mxCell id="9JYPRybK3mzHZb6tLrKf-130" value="" style="shape=partialRectangle;collapsible=0;dropTarget=0;pointerEvents=0;fillColor=none;top=0;left=0;bottom=0;right=0;points=[[0,0.5],[1,0.5]];portConstraint=eastwest;" vertex="1" parent="9JYPRybK3mzHZb6tLrKf-3">
          <mxGeometry y="180" width="270" height="30" as="geometry" />
        </mxCell>
        <mxCell id="9JYPRybK3mzHZb6tLrKf-131" value="" style="shape=partialRectangle;connectable=0;fillColor=none;top=0;left=0;bottom=0;right=0;editable=1;overflow=hidden;" vertex="1" parent="9JYPRybK3mzHZb6tLrKf-130">
          <mxGeometry width="30" height="30" as="geometry" />
        </mxCell>
        <mxCell id="9JYPRybK3mzHZb6tLrKf-132" value="area (30) VARCHAR NULL" style="shape=partialRectangle;connectable=0;fillColor=none;top=0;left=0;bottom=0;right=0;align=left;spacingLeft=6;overflow=hidden;" vertex="1" parent="9JYPRybK3mzHZb6tLrKf-130">
          <mxGeometry x="30" width="240" height="30" as="geometry" />
        </mxCell>
        <mxCell id="9JYPRybK3mzHZb6tLrKf-25" value="" style="shape=partialRectangle;collapsible=0;dropTarget=0;pointerEvents=0;fillColor=none;points=[[0,0.5],[1,0.5]];portConstraint=eastwest;top=0;left=0;right=0;bottom=0;" vertex="1" parent="1">
          <mxGeometry x="40" y="240" width="250" height="30" as="geometry" />
        </mxCell>
        <mxCell id="9JYPRybK3mzHZb6tLrKf-26" value="" style="shape=partialRectangle;overflow=hidden;connectable=0;fillColor=none;top=0;left=0;bottom=0;right=0;" vertex="1" parent="9JYPRybK3mzHZb6tLrKf-25">
          <mxGeometry width="30" height="30" as="geometry" />
        </mxCell>
        <mxCell id="9JYPRybK3mzHZb6tLrKf-133" value="Jenis Barang" style="shape=table;startSize=30;container=1;collapsible=1;childLayout=tableLayout;fixedRows=1;rowLines=0;fontStyle=1;align=center;resizeLast=1;strokeColor=#000000;fillColor=#007FFF;" vertex="1" collapsed="1" parent="1">
          <mxGeometry x="130" y="70" width="110" height="30" as="geometry">
            <mxRectangle x="130" y="70" width="270" height="340" as="alternateBounds" />
          </mxGeometry>
        </mxCell>
        <mxCell id="9JYPRybK3mzHZb6tLrKf-134" value="" style="shape=partialRectangle;collapsible=0;dropTarget=0;pointerEvents=0;fillColor=none;top=0;left=0;bottom=1;right=0;points=[[0,0.5],[1,0.5]];portConstraint=eastwest;" vertex="1" parent="9JYPRybK3mzHZb6tLrKf-133">
          <mxGeometry y="30" width="270" height="30" as="geometry" />
        </mxCell>
        <mxCell id="9JYPRybK3mzHZb6tLrKf-135" value="PK" style="shape=partialRectangle;connectable=0;fillColor=none;top=0;left=0;bottom=0;right=0;fontStyle=1;overflow=hidden;" vertex="1" parent="9JYPRybK3mzHZb6tLrKf-134">
          <mxGeometry width="30" height="30" as="geometry" />
        </mxCell>
        <mxCell id="9JYPRybK3mzHZb6tLrKf-136" value="id_jenis int (12) NOT NULL" style="shape=partialRectangle;connectable=0;fillColor=none;top=0;left=0;bottom=0;right=0;align=left;spacingLeft=6;fontStyle=1;overflow=hidden;" vertex="1" parent="9JYPRybK3mzHZb6tLrKf-134">
          <mxGeometry x="30" width="240" height="30" as="geometry" />
        </mxCell>
        <mxCell id="9JYPRybK3mzHZb6tLrKf-137" value="" style="shape=partialRectangle;collapsible=0;dropTarget=0;pointerEvents=0;fillColor=none;top=0;left=0;bottom=0;right=0;points=[[0,0.5],[1,0.5]];portConstraint=eastwest;" vertex="1" parent="9JYPRybK3mzHZb6tLrKf-133">
          <mxGeometry y="60" width="270" height="30" as="geometry" />
        </mxCell>
        <mxCell id="9JYPRybK3mzHZb6tLrKf-138" value="" style="shape=partialRectangle;connectable=0;fillColor=none;top=0;left=0;bottom=0;right=0;editable=1;overflow=hidden;" vertex="1" parent="9JYPRybK3mzHZb6tLrKf-137">
          <mxGeometry width="30" height="30" as="geometry" />
        </mxCell>
        <mxCell id="9JYPRybK3mzHZb6tLrKf-139" value="nm_jenis (255) VARCHAR NOT NULL" style="shape=partialRectangle;connectable=0;fillColor=none;top=0;left=0;bottom=0;right=0;align=left;spacingLeft=6;overflow=hidden;" vertex="1" parent="9JYPRybK3mzHZb6tLrKf-137">
          <mxGeometry x="30" width="240" height="30" as="geometry" />
        </mxCell>
        <mxCell id="9JYPRybK3mzHZb6tLrKf-140" value="" style="shape=partialRectangle;collapsible=0;dropTarget=0;pointerEvents=0;fillColor=none;top=0;left=0;bottom=0;right=0;points=[[0,0.5],[1,0.5]];portConstraint=eastwest;" vertex="1" parent="9JYPRybK3mzHZb6tLrKf-133">
          <mxGeometry y="90" width="270" height="30" as="geometry" />
        </mxCell>
        <mxCell id="9JYPRybK3mzHZb6tLrKf-141" value="" style="shape=partialRectangle;connectable=0;fillColor=none;top=0;left=0;bottom=0;right=0;editable=1;overflow=hidden;" vertex="1" parent="9JYPRybK3mzHZb6tLrKf-140">
          <mxGeometry width="30" height="30" as="geometry" />
        </mxCell>
        <mxCell id="9JYPRybK3mzHZb6tLrKf-142" value="p (6,2) DECIMAL NOT NULL" style="shape=partialRectangle;connectable=0;fillColor=none;top=0;left=0;bottom=0;right=0;align=left;spacingLeft=6;overflow=hidden;" vertex="1" parent="9JYPRybK3mzHZb6tLrKf-140">
          <mxGeometry x="30" width="240" height="30" as="geometry" />
        </mxCell>
        <mxCell id="9JYPRybK3mzHZb6tLrKf-143" value="" style="shape=partialRectangle;collapsible=0;dropTarget=0;pointerEvents=0;fillColor=none;top=0;left=0;bottom=0;right=0;points=[[0,0.5],[1,0.5]];portConstraint=eastwest;" vertex="1" parent="9JYPRybK3mzHZb6tLrKf-133">
          <mxGeometry y="120" width="270" height="30" as="geometry" />
        </mxCell>
        <mxCell id="9JYPRybK3mzHZb6tLrKf-144" value="" style="shape=partialRectangle;connectable=0;fillColor=none;top=0;left=0;bottom=0;right=0;editable=1;overflow=hidden;" vertex="1" parent="9JYPRybK3mzHZb6tLrKf-143">
          <mxGeometry width="30" height="30" as="geometry" />
        </mxCell>
        <mxCell id="9JYPRybK3mzHZb6tLrKf-145" value="l (6,2) DECIMAL NOT NULL" style="shape=partialRectangle;connectable=0;fillColor=none;top=0;left=0;bottom=0;right=0;align=left;spacingLeft=6;overflow=hidden;" vertex="1" parent="9JYPRybK3mzHZb6tLrKf-143">
          <mxGeometry x="30" width="240" height="30" as="geometry" />
        </mxCell>
        <mxCell id="9JYPRybK3mzHZb6tLrKf-151" value="" style="shape=partialRectangle;collapsible=0;dropTarget=0;pointerEvents=0;fillColor=none;top=0;left=0;bottom=0;right=0;points=[[0,0.5],[1,0.5]];portConstraint=eastwest;" vertex="1" parent="9JYPRybK3mzHZb6tLrKf-133">
          <mxGeometry y="150" width="270" height="30" as="geometry" />
        </mxCell>
        <mxCell id="9JYPRybK3mzHZb6tLrKf-152" value="" style="shape=partialRectangle;connectable=0;fillColor=none;top=0;left=0;bottom=0;right=0;editable=1;overflow=hidden;" vertex="1" parent="9JYPRybK3mzHZb6tLrKf-151">
          <mxGeometry width="30" height="30" as="geometry" />
        </mxCell>
        <mxCell id="9JYPRybK3mzHZb6tLrKf-153" value="t (6,2) DECIMAL NOT NULL" style="shape=partialRectangle;connectable=0;fillColor=none;top=0;left=0;bottom=0;right=0;align=left;spacingLeft=6;overflow=hidden;" vertex="1" parent="9JYPRybK3mzHZb6tLrKf-151">
          <mxGeometry x="30" width="240" height="30" as="geometry" />
        </mxCell>
        <mxCell id="9JYPRybK3mzHZb6tLrKf-159" value="" style="shape=partialRectangle;collapsible=0;dropTarget=0;pointerEvents=0;fillColor=none;top=0;left=0;bottom=0;right=0;points=[[0,0.5],[1,0.5]];portConstraint=eastwest;" vertex="1" parent="9JYPRybK3mzHZb6tLrKf-133">
          <mxGeometry y="180" width="270" height="30" as="geometry" />
        </mxCell>
        <mxCell id="9JYPRybK3mzHZb6tLrKf-160" value="" style="shape=partialRectangle;connectable=0;fillColor=none;top=0;left=0;bottom=0;right=0;editable=1;overflow=hidden;" vertex="1" parent="9JYPRybK3mzHZb6tLrKf-159">
          <mxGeometry width="30" height="30" as="geometry" />
        </mxCell>
        <mxCell id="9JYPRybK3mzHZb6tLrKf-161" value="satuan_jenis (50) VARCHAR NOT NULL" style="shape=partialRectangle;connectable=0;fillColor=none;top=0;left=0;bottom=0;right=0;align=left;spacingLeft=6;overflow=hidden;" vertex="1" parent="9JYPRybK3mzHZb6tLrKf-159">
          <mxGeometry x="30" width="240" height="30" as="geometry" />
        </mxCell>
        <mxCell id="9JYPRybK3mzHZb6tLrKf-163" value="" style="shape=partialRectangle;collapsible=0;dropTarget=0;pointerEvents=0;fillColor=none;top=0;left=0;bottom=0;right=0;points=[[0,0.5],[1,0.5]];portConstraint=eastwest;" vertex="1" parent="9JYPRybK3mzHZb6tLrKf-133">
          <mxGeometry y="210" width="270" height="30" as="geometry" />
        </mxCell>
        <mxCell id="9JYPRybK3mzHZb6tLrKf-164" value="" style="shape=partialRectangle;connectable=0;fillColor=none;top=0;left=0;bottom=0;right=0;editable=1;overflow=hidden;" vertex="1" parent="9JYPRybK3mzHZb6tLrKf-163">
          <mxGeometry width="30" height="30" as="geometry" />
        </mxCell>
        <mxCell id="9JYPRybK3mzHZb6tLrKf-165" value="volume_jenis (6,2) DECIMAL NOT NULL" style="shape=partialRectangle;connectable=0;fillColor=none;top=0;left=0;bottom=0;right=0;align=left;spacingLeft=6;overflow=hidden;" vertex="1" parent="9JYPRybK3mzHZb6tLrKf-163">
          <mxGeometry x="30" width="240" height="30" as="geometry" />
        </mxCell>
        <mxCell id="9JYPRybK3mzHZb6tLrKf-167" value="" style="shape=partialRectangle;collapsible=0;dropTarget=0;pointerEvents=0;fillColor=none;top=0;left=0;bottom=0;right=0;points=[[0,0.5],[1,0.5]];portConstraint=eastwest;" vertex="1" parent="9JYPRybK3mzHZb6tLrKf-133">
          <mxGeometry y="240" width="270" height="30" as="geometry" />
        </mxCell>
        <mxCell id="9JYPRybK3mzHZb6tLrKf-168" value="" style="shape=partialRectangle;connectable=0;fillColor=none;top=0;left=0;bottom=0;right=0;editable=1;overflow=hidden;" vertex="1" parent="9JYPRybK3mzHZb6tLrKf-167">
          <mxGeometry width="30" height="30" as="geometry" />
        </mxCell>
        <mxCell id="9JYPRybK3mzHZb6tLrKf-169" value="area (15) VARCHAR  NULL" style="shape=partialRectangle;connectable=0;fillColor=none;top=0;left=0;bottom=0;right=0;align=left;spacingLeft=6;overflow=hidden;" vertex="1" parent="9JYPRybK3mzHZb6tLrKf-167">
          <mxGeometry x="30" width="240" height="30" as="geometry" />
        </mxCell>
        <mxCell id="9JYPRybK3mzHZb6tLrKf-170" value="Alat Berat" style="shape=table;startSize=30;container=1;collapsible=1;childLayout=tableLayout;fixedRows=1;rowLines=0;fontStyle=1;align=center;resizeLast=1;strokeColor=#000000;fillColor=#007FFF;" vertex="1" collapsed="1" parent="1">
          <mxGeometry x="180" y="140" width="60" height="30" as="geometry">
            <mxRectangle x="180" y="140" width="280" height="320" as="alternateBounds" />
          </mxGeometry>
        </mxCell>
        <mxCell id="9JYPRybK3mzHZb6tLrKf-171" value="" style="shape=partialRectangle;collapsible=0;dropTarget=0;pointerEvents=0;fillColor=none;top=0;left=0;bottom=1;right=0;points=[[0,0.5],[1,0.5]];portConstraint=eastwest;" vertex="1" parent="9JYPRybK3mzHZb6tLrKf-170">
          <mxGeometry y="30" width="280" height="30" as="geometry" />
        </mxCell>
        <mxCell id="9JYPRybK3mzHZb6tLrKf-172" value="PK" style="shape=partialRectangle;connectable=0;fillColor=none;top=0;left=0;bottom=0;right=0;fontStyle=1;overflow=hidden;" vertex="1" parent="9JYPRybK3mzHZb6tLrKf-171">
          <mxGeometry width="30" height="30" as="geometry" />
        </mxCell>
        <mxCell id="9JYPRybK3mzHZb6tLrKf-173" value="id_alatberat int (12) NOT NULL" style="shape=partialRectangle;connectable=0;fillColor=none;top=0;left=0;bottom=0;right=0;align=left;spacingLeft=6;fontStyle=1;overflow=hidden;" vertex="1" parent="9JYPRybK3mzHZb6tLrKf-171">
          <mxGeometry x="30" width="250" height="30" as="geometry" />
        </mxCell>
        <mxCell id="9JYPRybK3mzHZb6tLrKf-174" value="" style="shape=partialRectangle;collapsible=0;dropTarget=0;pointerEvents=0;fillColor=none;top=0;left=0;bottom=0;right=0;points=[[0,0.5],[1,0.5]];portConstraint=eastwest;" vertex="1" parent="9JYPRybK3mzHZb6tLrKf-170">
          <mxGeometry y="60" width="280" height="20" as="geometry" />
        </mxCell>
        <mxCell id="9JYPRybK3mzHZb6tLrKf-175" value="" style="shape=partialRectangle;connectable=0;fillColor=none;top=0;left=0;bottom=0;right=0;editable=1;overflow=hidden;" vertex="1" parent="9JYPRybK3mzHZb6tLrKf-174">
          <mxGeometry width="30" height="20" as="geometry" />
        </mxCell>
        <mxCell id="9JYPRybK3mzHZb6tLrKf-176" value="nm_alatberat (255) VARCHAR NOT NULL" style="shape=partialRectangle;connectable=0;fillColor=none;top=0;left=0;bottom=0;right=0;align=left;spacingLeft=6;overflow=hidden;" vertex="1" parent="9JYPRybK3mzHZb6tLrKf-174">
          <mxGeometry x="30" width="250" height="20" as="geometry" />
        </mxCell>
        <mxCell id="9JYPRybK3mzHZb6tLrKf-177" value="" style="shape=partialRectangle;collapsible=0;dropTarget=0;pointerEvents=0;fillColor=none;top=0;left=0;bottom=0;right=0;points=[[0,0.5],[1,0.5]];portConstraint=eastwest;" vertex="1" parent="9JYPRybK3mzHZb6tLrKf-170">
          <mxGeometry y="80" width="280" height="30" as="geometry" />
        </mxCell>
        <mxCell id="9JYPRybK3mzHZb6tLrKf-178" value="" style="shape=partialRectangle;connectable=0;fillColor=none;top=0;left=0;bottom=0;right=0;editable=1;overflow=hidden;" vertex="1" parent="9JYPRybK3mzHZb6tLrKf-177">
          <mxGeometry width="30" height="30" as="geometry" />
        </mxCell>
        <mxCell id="9JYPRybK3mzHZb6tLrKf-179" value="kapasitas_alatberat (6,2) DECIMAL NULL" style="shape=partialRectangle;connectable=0;fillColor=none;top=0;left=0;bottom=0;right=0;align=left;spacingLeft=6;overflow=hidden;" vertex="1" parent="9JYPRybK3mzHZb6tLrKf-177">
          <mxGeometry x="30" width="250" height="30" as="geometry" />
        </mxCell>
        <mxCell id="9JYPRybK3mzHZb6tLrKf-180" value="" style="shape=partialRectangle;collapsible=0;dropTarget=0;pointerEvents=0;fillColor=none;top=0;left=0;bottom=0;right=0;points=[[0,0.5],[1,0.5]];portConstraint=eastwest;" vertex="1" parent="9JYPRybK3mzHZb6tLrKf-170">
          <mxGeometry y="110" width="280" height="30" as="geometry" />
        </mxCell>
        <mxCell id="9JYPRybK3mzHZb6tLrKf-181" value="" style="shape=partialRectangle;connectable=0;fillColor=none;top=0;left=0;bottom=0;right=0;editable=1;overflow=hidden;" vertex="1" parent="9JYPRybK3mzHZb6tLrKf-180">
          <mxGeometry width="30" height="30" as="geometry" />
        </mxCell>
        <mxCell id="9JYPRybK3mzHZb6tLrKf-182" value="jns_alatberat (30) VARCHAR NULL" style="shape=partialRectangle;connectable=0;fillColor=none;top=0;left=0;bottom=0;right=0;align=left;spacingLeft=6;overflow=hidden;" vertex="1" parent="9JYPRybK3mzHZb6tLrKf-180">
          <mxGeometry x="30" width="250" height="30" as="geometry" />
        </mxCell>
        <mxCell id="9JYPRybK3mzHZb6tLrKf-188" value="" style="shape=partialRectangle;collapsible=0;dropTarget=0;pointerEvents=0;fillColor=none;top=0;left=0;bottom=0;right=0;points=[[0,0.5],[1,0.5]];portConstraint=eastwest;" vertex="1" parent="9JYPRybK3mzHZb6tLrKf-170">
          <mxGeometry y="140" width="280" height="30" as="geometry" />
        </mxCell>
        <mxCell id="9JYPRybK3mzHZb6tLrKf-189" value="" style="shape=partialRectangle;connectable=0;fillColor=none;top=0;left=0;bottom=0;right=0;editable=1;overflow=hidden;" vertex="1" parent="9JYPRybK3mzHZb6tLrKf-188">
          <mxGeometry width="30" height="30" as="geometry" />
        </mxCell>
        <mxCell id="9JYPRybK3mzHZb6tLrKf-190" value="area_alatberat (20) VARCHAR NULL" style="shape=partialRectangle;connectable=0;fillColor=none;top=0;left=0;bottom=0;right=0;align=left;spacingLeft=6;overflow=hidden;" vertex="1" parent="9JYPRybK3mzHZb6tLrKf-188">
          <mxGeometry x="30" width="250" height="30" as="geometry" />
        </mxCell>
        <mxCell id="9JYPRybK3mzHZb6tLrKf-192" value="" style="shape=partialRectangle;collapsible=0;dropTarget=0;pointerEvents=0;fillColor=none;top=0;left=0;bottom=0;right=0;points=[[0,0.5],[1,0.5]];portConstraint=eastwest;" vertex="1" parent="9JYPRybK3mzHZb6tLrKf-170">
          <mxGeometry y="170" width="280" height="30" as="geometry" />
        </mxCell>
        <mxCell id="9JYPRybK3mzHZb6tLrKf-193" value="" style="shape=partialRectangle;connectable=0;fillColor=none;top=0;left=0;bottom=0;right=0;editable=1;overflow=hidden;" vertex="1" parent="9JYPRybK3mzHZb6tLrKf-192">
          <mxGeometry width="30" height="30" as="geometry" />
        </mxCell>
        <mxCell id="9JYPRybK3mzHZb6tLrKf-194" value="status_alatberat (20) VARCHAR NULL" style="shape=partialRectangle;connectable=0;fillColor=none;top=0;left=0;bottom=0;right=0;align=left;spacingLeft=6;overflow=hidden;" vertex="1" parent="9JYPRybK3mzHZb6tLrKf-192">
          <mxGeometry x="30" width="250" height="30" as="geometry" />
        </mxCell>
        <mxCell id="9JYPRybK3mzHZb6tLrKf-195" value="Jetty" style="shape=table;startSize=30;container=1;collapsible=1;childLayout=tableLayout;fixedRows=1;rowLines=0;fontStyle=1;align=center;resizeLast=1;strokeColor=#000000;fillColor=#007FFF;" vertex="1" collapsed="1" parent="1">
          <mxGeometry x="60" y="180" width="60" height="30" as="geometry">
            <mxRectangle x="60" y="180" width="280" height="260" as="alternateBounds" />
          </mxGeometry>
        </mxCell>
        <mxCell id="9JYPRybK3mzHZb6tLrKf-196" value="" style="shape=partialRectangle;collapsible=0;dropTarget=0;pointerEvents=0;fillColor=none;top=0;left=0;bottom=1;right=0;points=[[0,0.5],[1,0.5]];portConstraint=eastwest;" vertex="1" parent="9JYPRybK3mzHZb6tLrKf-195">
          <mxGeometry y="30" width="280" height="30" as="geometry" />
        </mxCell>
        <mxCell id="9JYPRybK3mzHZb6tLrKf-197" value="PK" style="shape=partialRectangle;connectable=0;fillColor=none;top=0;left=0;bottom=0;right=0;fontStyle=1;overflow=hidden;" vertex="1" parent="9JYPRybK3mzHZb6tLrKf-196">
          <mxGeometry width="30" height="30" as="geometry" />
        </mxCell>
        <mxCell id="9JYPRybK3mzHZb6tLrKf-198" value="id_jetty int (12) NOT NULL" style="shape=partialRectangle;connectable=0;fillColor=none;top=0;left=0;bottom=0;right=0;align=left;spacingLeft=6;fontStyle=1;overflow=hidden;" vertex="1" parent="9JYPRybK3mzHZb6tLrKf-196">
          <mxGeometry x="30" width="250" height="30" as="geometry" />
        </mxCell>
        <mxCell id="9JYPRybK3mzHZb6tLrKf-199" value="" style="shape=partialRectangle;collapsible=0;dropTarget=0;pointerEvents=0;fillColor=none;top=0;left=0;bottom=0;right=0;points=[[0,0.5],[1,0.5]];portConstraint=eastwest;" vertex="1" parent="9JYPRybK3mzHZb6tLrKf-195">
          <mxGeometry y="60" width="280" height="20" as="geometry" />
        </mxCell>
        <mxCell id="9JYPRybK3mzHZb6tLrKf-200" value="" style="shape=partialRectangle;connectable=0;fillColor=none;top=0;left=0;bottom=0;right=0;editable=1;overflow=hidden;" vertex="1" parent="9JYPRybK3mzHZb6tLrKf-199">
          <mxGeometry width="30" height="20" as="geometry" />
        </mxCell>
        <mxCell id="9JYPRybK3mzHZb6tLrKf-201" value="nm_jetty (50) VARCHAR NOT NULL" style="shape=partialRectangle;connectable=0;fillColor=none;top=0;left=0;bottom=0;right=0;align=left;spacingLeft=6;overflow=hidden;" vertex="1" parent="9JYPRybK3mzHZb6tLrKf-199">
          <mxGeometry x="30" width="250" height="20" as="geometry" />
        </mxCell>
        <mxCell id="9JYPRybK3mzHZb6tLrKf-202" value="" style="shape=partialRectangle;collapsible=0;dropTarget=0;pointerEvents=0;fillColor=none;top=0;left=0;bottom=0;right=0;points=[[0,0.5],[1,0.5]];portConstraint=eastwest;" vertex="1" parent="9JYPRybK3mzHZb6tLrKf-195">
          <mxGeometry y="80" width="280" height="30" as="geometry" />
        </mxCell>
        <mxCell id="9JYPRybK3mzHZb6tLrKf-203" value="" style="shape=partialRectangle;connectable=0;fillColor=none;top=0;left=0;bottom=0;right=0;editable=1;overflow=hidden;" vertex="1" parent="9JYPRybK3mzHZb6tLrKf-202">
          <mxGeometry width="30" height="30" as="geometry" />
        </mxCell>
        <mxCell id="9JYPRybK3mzHZb6tLrKf-204" value="area_jetty (20) VARCHAR NULL" style="shape=partialRectangle;connectable=0;fillColor=none;top=0;left=0;bottom=0;right=0;align=left;spacingLeft=6;overflow=hidden;" vertex="1" parent="9JYPRybK3mzHZb6tLrKf-202">
          <mxGeometry x="30" width="250" height="30" as="geometry" />
        </mxCell>
        <mxCell id="9JYPRybK3mzHZb6tLrKf-205" value="" style="shape=partialRectangle;collapsible=0;dropTarget=0;pointerEvents=0;fillColor=none;top=0;left=0;bottom=0;right=0;points=[[0,0.5],[1,0.5]];portConstraint=eastwest;" vertex="1" parent="9JYPRybK3mzHZb6tLrKf-195">
          <mxGeometry y="110" width="280" height="30" as="geometry" />
        </mxCell>
        <mxCell id="9JYPRybK3mzHZb6tLrKf-206" value="" style="shape=partialRectangle;connectable=0;fillColor=none;top=0;left=0;bottom=0;right=0;editable=1;overflow=hidden;" vertex="1" parent="9JYPRybK3mzHZb6tLrKf-205">
          <mxGeometry width="30" height="30" as="geometry" />
        </mxCell>
        <mxCell id="9JYPRybK3mzHZb6tLrKf-207" value="status_alatberat (20) VARCHAR NULL" style="shape=partialRectangle;connectable=0;fillColor=none;top=0;left=0;bottom=0;right=0;align=left;spacingLeft=6;overflow=hidden;" vertex="1" parent="9JYPRybK3mzHZb6tLrKf-205">
          <mxGeometry x="30" width="250" height="30" as="geometry" />
        </mxCell>
        <mxCell id="9JYPRybK3mzHZb6tLrKf-214" value="Job Order" style="shape=table;startSize=30;container=1;collapsible=1;childLayout=tableLayout;fixedRows=1;rowLines=0;fontStyle=1;align=center;resizeLast=1;strokeColor=#000000;fillColor=#007FFF;" vertex="1" parent="1">
          <mxGeometry x="100" y="250" width="290" height="760" as="geometry">
            <mxRectangle x="160" y="250" width="110" height="30" as="alternateBounds" />
          </mxGeometry>
        </mxCell>
        <mxCell id="9JYPRybK3mzHZb6tLrKf-215" value="" style="shape=partialRectangle;collapsible=0;dropTarget=0;pointerEvents=0;fillColor=none;top=0;left=0;bottom=1;right=0;points=[[0,0.5],[1,0.5]];portConstraint=eastwest;" vertex="1" parent="9JYPRybK3mzHZb6tLrKf-214">
          <mxGeometry y="30" width="290" height="30" as="geometry" />
        </mxCell>
        <mxCell id="9JYPRybK3mzHZb6tLrKf-216" value="PK" style="shape=partialRectangle;connectable=0;fillColor=none;top=0;left=0;bottom=0;right=0;fontStyle=1;overflow=hidden;" vertex="1" parent="9JYPRybK3mzHZb6tLrKf-215">
          <mxGeometry width="30" height="30" as="geometry" />
        </mxCell>
        <mxCell id="9JYPRybK3mzHZb6tLrKf-217" value="id_joborder int (12) NOT NULL" style="shape=partialRectangle;connectable=0;fillColor=none;top=0;left=0;bottom=0;right=0;align=left;spacingLeft=6;fontStyle=1;overflow=hidden;" vertex="1" parent="9JYPRybK3mzHZb6tLrKf-215">
          <mxGeometry x="30" width="260" height="30" as="geometry" />
        </mxCell>
        <mxCell id="9JYPRybK3mzHZb6tLrKf-218" value="" style="shape=partialRectangle;collapsible=0;dropTarget=0;pointerEvents=0;fillColor=none;top=0;left=0;bottom=0;right=0;points=[[0,0.5],[1,0.5]];portConstraint=eastwest;" vertex="1" parent="9JYPRybK3mzHZb6tLrKf-214">
          <mxGeometry y="60" width="290" height="30" as="geometry" />
        </mxCell>
        <mxCell id="9JYPRybK3mzHZb6tLrKf-219" value="" style="shape=partialRectangle;connectable=0;fillColor=none;top=0;left=0;bottom=0;right=0;editable=1;overflow=hidden;" vertex="1" parent="9JYPRybK3mzHZb6tLrKf-218">
          <mxGeometry width="30" height="30" as="geometry" />
        </mxCell>
        <mxCell id="9JYPRybK3mzHZb6tLrKf-220" value="kd_jovessel (15) VARCHAR NOT NULL" style="shape=partialRectangle;connectable=0;fillColor=none;top=0;left=0;bottom=0;right=0;align=left;spacingLeft=6;overflow=hidden;" vertex="1" parent="9JYPRybK3mzHZb6tLrKf-218">
          <mxGeometry x="30" width="260" height="30" as="geometry" />
        </mxCell>
        <mxCell id="9JYPRybK3mzHZb6tLrKf-221" value="" style="shape=partialRectangle;collapsible=0;dropTarget=0;pointerEvents=0;fillColor=none;top=0;left=0;bottom=0;right=0;points=[[0,0.5],[1,0.5]];portConstraint=eastwest;" vertex="1" parent="9JYPRybK3mzHZb6tLrKf-214">
          <mxGeometry y="90" width="290" height="30" as="geometry" />
        </mxCell>
        <mxCell id="9JYPRybK3mzHZb6tLrKf-222" value="" style="shape=partialRectangle;connectable=0;fillColor=none;top=0;left=0;bottom=0;right=0;editable=1;overflow=hidden;" vertex="1" parent="9JYPRybK3mzHZb6tLrKf-221">
          <mxGeometry width="30" height="30" as="geometry" />
        </mxCell>
        <mxCell id="9JYPRybK3mzHZb6tLrKf-223" value="nm_kapal (20) VARCHAR  NULL" style="shape=partialRectangle;connectable=0;fillColor=none;top=0;left=0;bottom=0;right=0;align=left;spacingLeft=6;overflow=hidden;" vertex="1" parent="9JYPRybK3mzHZb6tLrKf-221">
          <mxGeometry x="30" width="260" height="30" as="geometry" />
        </mxCell>
        <mxCell id="9JYPRybK3mzHZb6tLrKf-224" value="" style="shape=partialRectangle;collapsible=0;dropTarget=0;pointerEvents=0;fillColor=none;top=0;left=0;bottom=0;right=0;points=[[0,0.5],[1,0.5]];portConstraint=eastwest;" vertex="1" parent="9JYPRybK3mzHZb6tLrKf-214">
          <mxGeometry y="120" width="290" height="30" as="geometry" />
        </mxCell>
        <mxCell id="9JYPRybK3mzHZb6tLrKf-225" value="" style="shape=partialRectangle;connectable=0;fillColor=none;top=0;left=0;bottom=0;right=0;editable=1;overflow=hidden;" vertex="1" parent="9JYPRybK3mzHZb6tLrKf-224">
          <mxGeometry width="30" height="30" as="geometry" />
        </mxCell>
        <mxCell id="9JYPRybK3mzHZb6tLrKf-226" value="agen_kapal (20) VARCHAR  NULL" style="shape=partialRectangle;connectable=0;fillColor=none;top=0;left=0;bottom=0;right=0;align=left;spacingLeft=6;overflow=hidden;" vertex="1" parent="9JYPRybK3mzHZb6tLrKf-224">
          <mxGeometry x="30" width="260" height="30" as="geometry" />
        </mxCell>
        <mxCell id="9JYPRybK3mzHZb6tLrKf-227" value="" style="shape=partialRectangle;collapsible=0;dropTarget=0;pointerEvents=0;fillColor=none;top=0;left=0;bottom=0;right=0;points=[[0,0.5],[1,0.5]];portConstraint=eastwest;" vertex="1" parent="9JYPRybK3mzHZb6tLrKf-214">
          <mxGeometry y="150" width="290" height="30" as="geometry" />
        </mxCell>
        <mxCell id="9JYPRybK3mzHZb6tLrKf-228" value="" style="shape=partialRectangle;connectable=0;fillColor=none;top=0;left=0;bottom=0;right=0;editable=1;overflow=hidden;" vertex="1" parent="9JYPRybK3mzHZb6tLrKf-227">
          <mxGeometry width="30" height="30" as="geometry" />
        </mxCell>
        <mxCell id="9JYPRybK3mzHZb6tLrKf-229" value="tgl_masuk date NULL" style="shape=partialRectangle;connectable=0;fillColor=none;top=0;left=0;bottom=0;right=0;align=left;spacingLeft=6;overflow=hidden;" vertex="1" parent="9JYPRybK3mzHZb6tLrKf-227">
          <mxGeometry x="30" width="260" height="30" as="geometry" />
        </mxCell>
        <mxCell id="9JYPRybK3mzHZb6tLrKf-230" value="" style="shape=partialRectangle;collapsible=0;dropTarget=0;pointerEvents=0;fillColor=none;top=0;left=0;bottom=0;right=0;points=[[0,0.5],[1,0.5]];portConstraint=eastwest;" vertex="1" parent="9JYPRybK3mzHZb6tLrKf-214">
          <mxGeometry y="180" width="290" height="30" as="geometry" />
        </mxCell>
        <mxCell id="9JYPRybK3mzHZb6tLrKf-231" value="" style="shape=partialRectangle;connectable=0;fillColor=none;top=0;left=0;bottom=0;right=0;editable=1;overflow=hidden;" vertex="1" parent="9JYPRybK3mzHZb6tLrKf-230">
          <mxGeometry width="30" height="30" as="geometry" />
        </mxCell>
        <mxCell id="9JYPRybK3mzHZb6tLrKf-232" value="jm_masuk time NULL" style="shape=partialRectangle;connectable=0;fillColor=none;top=0;left=0;bottom=0;right=0;align=left;spacingLeft=6;overflow=hidden;" vertex="1" parent="9JYPRybK3mzHZb6tLrKf-230">
          <mxGeometry x="30" width="260" height="30" as="geometry" />
        </mxCell>
        <mxCell id="9JYPRybK3mzHZb6tLrKf-233" value="" style="shape=partialRectangle;collapsible=0;dropTarget=0;pointerEvents=0;fillColor=none;top=0;left=0;bottom=0;right=0;points=[[0,0.5],[1,0.5]];portConstraint=eastwest;" vertex="1" parent="9JYPRybK3mzHZb6tLrKf-214">
          <mxGeometry y="210" width="290" height="30" as="geometry" />
        </mxCell>
        <mxCell id="9JYPRybK3mzHZb6tLrKf-234" value="" style="shape=partialRectangle;connectable=0;fillColor=none;top=0;left=0;bottom=0;right=0;editable=1;overflow=hidden;" vertex="1" parent="9JYPRybK3mzHZb6tLrKf-233">
          <mxGeometry width="30" height="30" as="geometry" />
        </mxCell>
        <mxCell id="9JYPRybK3mzHZb6tLrKf-235" value="tgl_keluar date NULL" style="shape=partialRectangle;connectable=0;fillColor=none;top=0;left=0;bottom=0;right=0;align=left;spacingLeft=6;overflow=hidden;" vertex="1" parent="9JYPRybK3mzHZb6tLrKf-233">
          <mxGeometry x="30" width="260" height="30" as="geometry" />
        </mxCell>
        <mxCell id="9JYPRybK3mzHZb6tLrKf-236" value="" style="shape=partialRectangle;collapsible=0;dropTarget=0;pointerEvents=0;fillColor=none;top=0;left=0;bottom=0;right=0;points=[[0,0.5],[1,0.5]];portConstraint=eastwest;" vertex="1" parent="9JYPRybK3mzHZb6tLrKf-214">
          <mxGeometry y="240" width="290" height="30" as="geometry" />
        </mxCell>
        <mxCell id="9JYPRybK3mzHZb6tLrKf-237" value="" style="shape=partialRectangle;connectable=0;fillColor=none;top=0;left=0;bottom=0;right=0;editable=1;overflow=hidden;" vertex="1" parent="9JYPRybK3mzHZb6tLrKf-236">
          <mxGeometry width="30" height="30" as="geometry" />
        </mxCell>
        <mxCell id="9JYPRybK3mzHZb6tLrKf-238" value="jm_keluar time NULL" style="shape=partialRectangle;connectable=0;fillColor=none;top=0;left=0;bottom=0;right=0;align=left;spacingLeft=6;overflow=hidden;" vertex="1" parent="9JYPRybK3mzHZb6tLrKf-236">
          <mxGeometry x="30" width="260" height="30" as="geometry" />
        </mxCell>
        <mxCell id="9JYPRybK3mzHZb6tLrKf-239" value="" style="shape=partialRectangle;collapsible=0;dropTarget=0;pointerEvents=0;fillColor=none;top=0;left=0;bottom=0;right=0;points=[[0,0.5],[1,0.5]];portConstraint=eastwest;strokeColor=#000000;" vertex="1" parent="9JYPRybK3mzHZb6tLrKf-214">
          <mxGeometry y="270" width="290" height="30" as="geometry" />
        </mxCell>
        <mxCell id="9JYPRybK3mzHZb6tLrKf-240" value="" style="shape=partialRectangle;connectable=0;fillColor=none;top=0;left=0;bottom=0;right=0;editable=1;overflow=hidden;" vertex="1" parent="9JYPRybK3mzHZb6tLrKf-239">
          <mxGeometry width="30" height="30" as="geometry" />
        </mxCell>
        <mxCell id="9JYPRybK3mzHZb6tLrKf-241" value="pelabuhan_asal (15) VARCHAR NOT NULL" style="shape=partialRectangle;connectable=0;fillColor=none;top=0;left=0;bottom=0;right=0;align=left;spacingLeft=6;overflow=hidden;" vertex="1" parent="9JYPRybK3mzHZb6tLrKf-239">
          <mxGeometry x="30" width="260" height="30" as="geometry" />
        </mxCell>
        <mxCell id="9JYPRybK3mzHZb6tLrKf-242" value="" style="shape=partialRectangle;collapsible=0;dropTarget=0;pointerEvents=0;fillColor=none;top=0;left=0;bottom=0;right=0;points=[[0,0.5],[1,0.5]];portConstraint=eastwest;strokeColor=#000000;" vertex="1" parent="9JYPRybK3mzHZb6tLrKf-214">
          <mxGeometry y="300" width="290" height="30" as="geometry" />
        </mxCell>
        <mxCell id="9JYPRybK3mzHZb6tLrKf-243" value="" style="shape=partialRectangle;connectable=0;fillColor=none;top=0;left=0;bottom=0;right=0;editable=1;overflow=hidden;" vertex="1" parent="9JYPRybK3mzHZb6tLrKf-242">
          <mxGeometry width="30" height="30" as="geometry" />
        </mxCell>
        <mxCell id="9JYPRybK3mzHZb6tLrKf-244" value="pelabuhan_tujuan (15) VARCHAR NOT NULL" style="shape=partialRectangle;connectable=0;fillColor=none;top=0;left=0;bottom=0;right=0;align=left;spacingLeft=6;overflow=hidden;" vertex="1" parent="9JYPRybK3mzHZb6tLrKf-242">
          <mxGeometry x="30" width="260" height="30" as="geometry" />
        </mxCell>
        <mxCell id="9JYPRybK3mzHZb6tLrKf-245" value="" style="shape=partialRectangle;collapsible=0;dropTarget=0;pointerEvents=0;fillColor=none;top=0;left=0;bottom=0;right=0;points=[[0,0.5],[1,0.5]];portConstraint=eastwest;strokeColor=#000000;" vertex="1" parent="9JYPRybK3mzHZb6tLrKf-214">
          <mxGeometry y="330" width="290" height="30" as="geometry" />
        </mxCell>
        <mxCell id="9JYPRybK3mzHZb6tLrKf-246" value="" style="shape=partialRectangle;connectable=0;fillColor=none;top=0;left=0;bottom=0;right=0;editable=1;overflow=hidden;" vertex="1" parent="9JYPRybK3mzHZb6tLrKf-245">
          <mxGeometry width="30" height="30" as="geometry" />
        </mxCell>
        <mxCell id="9JYPRybK3mzHZb6tLrKf-247" value="pelabuhan_asal (15) VARCHAR NOT NULL" style="shape=partialRectangle;connectable=0;fillColor=none;top=0;left=0;bottom=0;right=0;align=left;spacingLeft=6;overflow=hidden;" vertex="1" parent="9JYPRybK3mzHZb6tLrKf-245">
          <mxGeometry x="30" width="260" height="30" as="geometry" />
        </mxCell>
        <mxCell id="9JYPRybK3mzHZb6tLrKf-248" value="" style="shape=partialRectangle;collapsible=0;dropTarget=0;pointerEvents=0;fillColor=none;top=0;left=0;bottom=0;right=0;points=[[0,0.5],[1,0.5]];portConstraint=eastwest;strokeColor=#000000;" vertex="1" parent="9JYPRybK3mzHZb6tLrKf-214">
          <mxGeometry y="360" width="290" height="30" as="geometry" />
        </mxCell>
        <mxCell id="9JYPRybK3mzHZb6tLrKf-249" value="" style="shape=partialRectangle;connectable=0;fillColor=none;top=0;left=0;bottom=0;right=0;editable=1;overflow=hidden;" vertex="1" parent="9JYPRybK3mzHZb6tLrKf-248">
          <mxGeometry width="30" height="30" as="geometry" />
        </mxCell>
        <mxCell id="9JYPRybK3mzHZb6tLrKf-250" value="id_jenis (12) INT NULL" style="shape=partialRectangle;connectable=0;fillColor=none;top=0;left=0;bottom=0;right=0;align=left;spacingLeft=6;overflow=hidden;" vertex="1" parent="9JYPRybK3mzHZb6tLrKf-248">
          <mxGeometry x="30" width="260" height="30" as="geometry" />
        </mxCell>
        <mxCell id="9JYPRybK3mzHZb6tLrKf-251" value="" style="shape=partialRectangle;collapsible=0;dropTarget=0;pointerEvents=0;fillColor=none;top=0;left=0;bottom=0;right=0;points=[[0,0.5],[1,0.5]];portConstraint=eastwest;strokeColor=#000000;" vertex="1" parent="9JYPRybK3mzHZb6tLrKf-214">
          <mxGeometry y="390" width="290" height="30" as="geometry" />
        </mxCell>
        <mxCell id="9JYPRybK3mzHZb6tLrKf-252" value="" style="shape=partialRectangle;connectable=0;fillColor=none;top=0;left=0;bottom=0;right=0;editable=1;overflow=hidden;" vertex="1" parent="9JYPRybK3mzHZb6tLrKf-251">
          <mxGeometry width="30" height="30" as="geometry" />
        </mxCell>
        <mxCell id="9JYPRybK3mzHZb6tLrKf-253" value="nm_kegiatan (50) VARCHAR  NULL" style="shape=partialRectangle;connectable=0;fillColor=none;top=0;left=0;bottom=0;right=0;align=left;spacingLeft=6;overflow=hidden;" vertex="1" parent="9JYPRybK3mzHZb6tLrKf-251">
          <mxGeometry x="30" width="260" height="30" as="geometry" />
        </mxCell>
        <mxCell id="9JYPRybK3mzHZb6tLrKf-254" value="" style="shape=partialRectangle;collapsible=0;dropTarget=0;pointerEvents=0;fillColor=none;top=0;left=0;bottom=0;right=0;points=[[0,0.5],[1,0.5]];portConstraint=eastwest;strokeColor=#000000;" vertex="1" parent="9JYPRybK3mzHZb6tLrKf-214">
          <mxGeometry y="420" width="290" height="30" as="geometry" />
        </mxCell>
        <mxCell id="9JYPRybK3mzHZb6tLrKf-255" value="" style="shape=partialRectangle;connectable=0;fillColor=none;top=0;left=0;bottom=0;right=0;editable=1;overflow=hidden;" vertex="1" parent="9JYPRybK3mzHZb6tLrKf-254">
          <mxGeometry width="30" height="30" as="geometry" />
        </mxCell>
        <mxCell id="9JYPRybK3mzHZb6tLrKf-256" value="id_client (12) INT NULL" style="shape=partialRectangle;connectable=0;fillColor=none;top=0;left=0;bottom=0;right=0;align=left;spacingLeft=6;overflow=hidden;" vertex="1" parent="9JYPRybK3mzHZb6tLrKf-254">
          <mxGeometry x="30" width="260" height="30" as="geometry" />
        </mxCell>
        <mxCell id="9JYPRybK3mzHZb6tLrKf-257" value="" style="shape=partialRectangle;collapsible=0;dropTarget=0;pointerEvents=0;fillColor=none;top=0;left=0;bottom=0;right=0;points=[[0,0.5],[1,0.5]];portConstraint=eastwest;strokeColor=#000000;" vertex="1" parent="9JYPRybK3mzHZb6tLrKf-214">
          <mxGeometry y="450" width="290" height="30" as="geometry" />
        </mxCell>
        <mxCell id="9JYPRybK3mzHZb6tLrKf-258" value="" style="shape=partialRectangle;connectable=0;fillColor=none;top=0;left=0;bottom=0;right=0;editable=1;overflow=hidden;" vertex="1" parent="9JYPRybK3mzHZb6tLrKf-257">
          <mxGeometry width="30" height="30" as="geometry" />
        </mxCell>
        <mxCell id="9JYPRybK3mzHZb6tLrKf-259" value="document_perintah (30) VARCHAR  NULL" style="shape=partialRectangle;connectable=0;fillColor=none;top=0;left=0;bottom=0;right=0;align=left;spacingLeft=6;overflow=hidden;" vertex="1" parent="9JYPRybK3mzHZb6tLrKf-257">
          <mxGeometry x="30" width="260" height="30" as="geometry" />
        </mxCell>
        <mxCell id="9JYPRybK3mzHZb6tLrKf-260" value="" style="shape=partialRectangle;collapsible=0;dropTarget=0;pointerEvents=0;fillColor=none;top=0;left=0;bottom=0;right=0;points=[[0,0.5],[1,0.5]];portConstraint=eastwest;strokeColor=#000000;" vertex="1" parent="9JYPRybK3mzHZb6tLrKf-214">
          <mxGeometry y="480" width="290" height="30" as="geometry" />
        </mxCell>
        <mxCell id="9JYPRybK3mzHZb6tLrKf-261" value="" style="shape=partialRectangle;connectable=0;fillColor=none;top=0;left=0;bottom=0;right=0;editable=1;overflow=hidden;" vertex="1" parent="9JYPRybK3mzHZb6tLrKf-260">
          <mxGeometry width="30" height="30" as="geometry" />
        </mxCell>
        <mxCell id="9JYPRybK3mzHZb6tLrKf-262" value="no_wo (50) VARCHAR  NULL" style="shape=partialRectangle;connectable=0;fillColor=none;top=0;left=0;bottom=0;right=0;align=left;spacingLeft=6;overflow=hidden;" vertex="1" parent="9JYPRybK3mzHZb6tLrKf-260">
          <mxGeometry x="30" width="260" height="30" as="geometry" />
        </mxCell>
        <mxCell id="9JYPRybK3mzHZb6tLrKf-263" value="" style="shape=partialRectangle;collapsible=0;dropTarget=0;pointerEvents=0;fillColor=none;top=0;left=0;bottom=0;right=0;points=[[0,0.5],[1,0.5]];portConstraint=eastwest;strokeColor=#000000;" vertex="1" parent="9JYPRybK3mzHZb6tLrKf-214">
          <mxGeometry y="510" width="290" height="30" as="geometry" />
        </mxCell>
        <mxCell id="9JYPRybK3mzHZb6tLrKf-264" value="" style="shape=partialRectangle;connectable=0;fillColor=none;top=0;left=0;bottom=0;right=0;editable=1;overflow=hidden;" vertex="1" parent="9JYPRybK3mzHZb6tLrKf-263">
          <mxGeometry width="30" height="30" as="geometry" />
        </mxCell>
        <mxCell id="9JYPRybK3mzHZb6tLrKf-265" value="booking_cargo (6,2) DECIMAL  NULL" style="shape=partialRectangle;connectable=0;fillColor=none;top=0;left=0;bottom=0;right=0;align=left;spacingLeft=6;overflow=hidden;" vertex="1" parent="9JYPRybK3mzHZb6tLrKf-263">
          <mxGeometry x="30" width="260" height="30" as="geometry" />
        </mxCell>
        <mxCell id="9JYPRybK3mzHZb6tLrKf-266" value="" style="shape=partialRectangle;collapsible=0;dropTarget=0;pointerEvents=0;fillColor=none;top=0;left=0;bottom=0;right=0;points=[[0,0.5],[1,0.5]];portConstraint=eastwest;strokeColor=#000000;" vertex="1" parent="9JYPRybK3mzHZb6tLrKf-214">
          <mxGeometry y="540" width="290" height="30" as="geometry" />
        </mxCell>
        <mxCell id="9JYPRybK3mzHZb6tLrKf-267" value="" style="shape=partialRectangle;connectable=0;fillColor=none;top=0;left=0;bottom=0;right=0;editable=1;overflow=hidden;" vertex="1" parent="9JYPRybK3mzHZb6tLrKf-266">
          <mxGeometry width="30" height="30" as="geometry" />
        </mxCell>
        <mxCell id="9JYPRybK3mzHZb6tLrKf-268" value="total_cargo (6,2) DECIMAL  NULL" style="shape=partialRectangle;connectable=0;fillColor=none;top=0;left=0;bottom=0;right=0;align=left;spacingLeft=6;overflow=hidden;" vertex="1" parent="9JYPRybK3mzHZb6tLrKf-266">
          <mxGeometry x="30" width="260" height="30" as="geometry" />
        </mxCell>
        <mxCell id="9JYPRybK3mzHZb6tLrKf-269" value="" style="shape=partialRectangle;collapsible=0;dropTarget=0;pointerEvents=0;fillColor=none;top=0;left=0;bottom=0;right=0;points=[[0,0.5],[1,0.5]];portConstraint=eastwest;strokeColor=#000000;" vertex="1" parent="9JYPRybK3mzHZb6tLrKf-214">
          <mxGeometry y="570" width="290" height="30" as="geometry" />
        </mxCell>
        <mxCell id="9JYPRybK3mzHZb6tLrKf-270" value="" style="shape=partialRectangle;connectable=0;fillColor=none;top=0;left=0;bottom=0;right=0;editable=1;overflow=hidden;" vertex="1" parent="9JYPRybK3mzHZb6tLrKf-269">
          <mxGeometry width="30" height="30" as="geometry" />
        </mxCell>
        <mxCell id="9JYPRybK3mzHZb6tLrKf-271" value="sandar_kapal (20) VARCHAR  NULL" style="shape=partialRectangle;connectable=0;fillColor=none;top=0;left=0;bottom=0;right=0;align=left;spacingLeft=6;overflow=hidden;" vertex="1" parent="9JYPRybK3mzHZb6tLrKf-269">
          <mxGeometry x="30" width="260" height="30" as="geometry" />
        </mxCell>
        <mxCell id="9JYPRybK3mzHZb6tLrKf-272" value="" style="shape=partialRectangle;collapsible=0;dropTarget=0;pointerEvents=0;fillColor=none;top=0;left=0;bottom=0;right=0;points=[[0,0.5],[1,0.5]];portConstraint=eastwest;strokeColor=#000000;" vertex="1" parent="9JYPRybK3mzHZb6tLrKf-214">
          <mxGeometry y="600" width="290" height="30" as="geometry" />
        </mxCell>
        <mxCell id="9JYPRybK3mzHZb6tLrKf-273" value="" style="shape=partialRectangle;connectable=0;fillColor=none;top=0;left=0;bottom=0;right=0;editable=1;overflow=hidden;" vertex="1" parent="9JYPRybK3mzHZb6tLrKf-272">
          <mxGeometry width="30" height="30" as="geometry" />
        </mxCell>
        <mxCell id="9JYPRybK3mzHZb6tLrKf-274" value="doc_ptw (100) VARCHAR  NULL" style="shape=partialRectangle;connectable=0;fillColor=none;top=0;left=0;bottom=0;right=0;align=left;spacingLeft=6;overflow=hidden;" vertex="1" parent="9JYPRybK3mzHZb6tLrKf-272">
          <mxGeometry x="30" width="260" height="30" as="geometry" />
        </mxCell>
        <mxCell id="9JYPRybK3mzHZb6tLrKf-275" value="" style="shape=partialRectangle;collapsible=0;dropTarget=0;pointerEvents=0;fillColor=none;top=0;left=0;bottom=0;right=0;points=[[0,0.5],[1,0.5]];portConstraint=eastwest;strokeColor=#000000;" vertex="1" parent="9JYPRybK3mzHZb6tLrKf-214">
          <mxGeometry y="630" width="290" height="30" as="geometry" />
        </mxCell>
        <mxCell id="9JYPRybK3mzHZb6tLrKf-276" value="" style="shape=partialRectangle;connectable=0;fillColor=none;top=0;left=0;bottom=0;right=0;editable=1;overflow=hidden;" vertex="1" parent="9JYPRybK3mzHZb6tLrKf-275">
          <mxGeometry width="30" height="30" as="geometry" />
        </mxCell>
        <mxCell id="9JYPRybK3mzHZb6tLrKf-277" value="doc_pjsm (100) VARCHAR  NULL" style="shape=partialRectangle;connectable=0;fillColor=none;top=0;left=0;bottom=0;right=0;align=left;spacingLeft=6;overflow=hidden;" vertex="1" parent="9JYPRybK3mzHZb6tLrKf-275">
          <mxGeometry x="30" width="260" height="30" as="geometry" />
        </mxCell>
        <mxCell id="9JYPRybK3mzHZb6tLrKf-278" value="" style="shape=partialRectangle;collapsible=0;dropTarget=0;pointerEvents=0;fillColor=none;top=0;left=0;bottom=0;right=0;points=[[0,0.5],[1,0.5]];portConstraint=eastwest;strokeColor=#000000;" vertex="1" parent="9JYPRybK3mzHZb6tLrKf-214">
          <mxGeometry y="660" width="290" height="30" as="geometry" />
        </mxCell>
        <mxCell id="9JYPRybK3mzHZb6tLrKf-279" value="" style="shape=partialRectangle;connectable=0;fillColor=none;top=0;left=0;bottom=0;right=0;editable=1;overflow=hidden;" vertex="1" parent="9JYPRybK3mzHZb6tLrKf-278">
          <mxGeometry width="30" height="30" as="geometry" />
        </mxCell>
        <mxCell id="9JYPRybK3mzHZb6tLrKf-280" value="doc_lsap (100) VARCHAR  NULL" style="shape=partialRectangle;connectable=0;fillColor=none;top=0;left=0;bottom=0;right=0;align=left;spacingLeft=6;overflow=hidden;" vertex="1" parent="9JYPRybK3mzHZb6tLrKf-278">
          <mxGeometry x="30" width="260" height="30" as="geometry" />
        </mxCell>
      </root>
    </mxGraphModel>
  </diagram>
</mxfile>
